<?xml version="1.0" encoding="utf-8"?>
<!-- Generator: Adobe Illustrator 21.1.0, SVG Export Plug-In . SVG Version: 6.00 Build 0)  -->
<svg version="1.1" id="Layer_1" xmlns="http://www.w3.org/2000/svg" xmlns:xlink="http://www.w3.org/1999/xlink" x="0px" y="0px"
	 viewBox="0 0 299 134.7" style="enable-background:new 0 0 299 134.7;" xml:space="preserve">
<style type="text/css">
	.st0{clip-path:url(#SVGID_2_);fill:#ED1B32;}
	.st1{clip-path:url(#SVGID_2_);fill:#252468;}
	.st2{clip-path:url(#SVGID_2_);fill:#FFFFFF;}
</style>
<g>
	<defs>
		<rect id="SVGID_1_" width="299" height="134.7"/>
	</defs>
	<clipPath id="SVGID_2_">
		<use xlink:href="#SVGID_1_"  style="overflow:visible;"/>
	</clipPath>
	<path class="st0" d="M167.3,114.3c-0.1,0.4-0.3,0.9-0.6,1.6c-0.3,0.7-0.8,1.4-1.4,2.1c-0.6,0.7-1.5,1.3-2.6,1.9
		c-1.1,0.5-2.5,0.8-4.3,0.8c-1.3,0-2.7-0.2-4.1-0.6c-1.4-0.4-2.7-1.1-3.9-2c-1.2-0.9-2.2-2.1-2.9-3.6c-0.8-1.5-1.1-3.3-1.1-5.5
		c0-1.7,0.3-3.3,1-4.8c0.6-1.5,1.5-2.7,2.6-3.8c1.1-1.1,2.4-1.9,3.9-2.5s3.1-0.9,4.7-0.9c0.9,0,1.9,0.1,2.9,0.3c1,0.2,1.9,0.6,2.7,1
		c0.8,0.5,1.5,1.1,2,1.8c0.5,0.8,0.8,1.7,0.8,2.7c0,0.7-0.2,1.3-0.7,1.8c-0.5,0.5-1.1,0.7-2,0.7c-0.6,0-1.2-0.1-1.7-0.4
		c-0.5-0.3-0.8-0.7-0.8-1.3c0-0.5,0.1-1.1,0.4-1.8c0.2-0.7,0.4-1.3,0.4-1.7c0-0.8-0.4-1.4-1.2-1.9c-0.8-0.4-1.7-0.7-2.8-0.7
		c-0.8,0-1.6,0.1-2.4,0.3c-0.8,0.2-1.6,0.7-2.2,1.4c-0.7,0.8-1.2,1.9-1.7,3.4c-0.4,1.5-0.7,3.6-0.7,6.3c0,1.5,0.1,2.9,0.3,4.2
		c0.2,1.3,0.5,2.5,1,3.5c0.5,1,1.2,1.8,2.1,2.4c0.9,0.6,2,0.9,3.5,0.9c1.5,0,2.8-0.2,3.8-0.7c1-0.5,1.8-1,2.4-1.6
		c0.6-0.6,1-1.3,1.3-2c0.3-0.7,0.5-1.2,0.6-1.6L167.3,114.3z"/>
	<path class="st0" d="M193,119.4c-0.5,0.3-1,0.7-1.6,0.9c-0.6,0.3-1.4,0.4-2.3,0.4c-1.7,0-2.9-0.4-3.6-1.1c-0.8-0.7-1.3-1.7-1.5-3
		h-0.1c-0.1,0.3-0.3,0.7-0.6,1.2c-0.2,0.5-0.6,0.9-1.1,1.4c-0.5,0.4-1.2,0.8-2,1.1c-0.8,0.3-1.9,0.4-3.2,0.4c-1.5,0-2.6-0.2-3.5-0.5
		c-0.9-0.3-1.6-0.7-2-1.2c-0.5-0.5-0.8-1-1-1.6c-0.2-0.6-0.2-1.2-0.2-1.7c0-1.2,0.2-2.2,0.7-2.9c0.5-0.7,1.1-1.3,1.9-1.8
		c0.8-0.4,1.7-0.8,2.6-1.1c1-0.3,1.9-0.6,2.9-0.9c1.1-0.4,2.1-0.7,2.8-1c0.7-0.3,1.3-0.6,1.8-1c0.4-0.4,0.7-0.9,0.9-1.5
		c0.2-0.6,0.2-1.4,0.2-2.5c0-0.8-0.1-1.6-0.2-2.2c-0.1-0.7-0.3-1.2-0.6-1.7c-0.3-0.5-0.7-0.8-1.2-1.1c-0.5-0.2-1.2-0.4-2.1-0.4
		c-1.2,0-2.1,0.2-2.8,0.6c-0.8,0.4-1.1,1.1-1.1,2c0,0.6,0.1,1.2,0.2,1.8c0.1,0.6,0.2,1,0.2,1.3c0,0.5-0.2,0.9-0.5,1.2
		c-0.3,0.3-0.9,0.5-1.5,0.5c-1.2,0-1.9-0.2-2.1-0.6c-0.3-0.4-0.4-1-0.4-1.6c0-0.8,0.2-1.5,0.5-2.2c0.3-0.7,0.9-1.3,1.5-1.9
		c0.7-0.5,1.5-1,2.6-1.3c1-0.3,2.2-0.5,3.5-0.5c1.6,0,2.9,0.2,4,0.6s2,0.9,2.6,1.6c0.7,0.7,1.1,1.4,1.4,2.3c0.3,0.9,0.4,1.8,0.4,2.7
		v13c0,1,0.2,1.7,0.5,2c0.3,0.3,0.8,0.5,1.4,0.5c0.4,0,0.8-0.1,1.2-0.2c0.4-0.1,0.8-0.3,1.2-0.6L193,119.4z M183.9,107.2h-0.1
		c-0.1,0.5-0.6,0.9-1.7,1.4l-3.9,1.6c-1.1,0.5-2,1.1-2.6,1.9c-0.6,0.8-0.9,1.8-0.9,3.1c0,0.5,0.1,1.1,0.2,1.6
		c0.1,0.6,0.3,1.1,0.6,1.5c0.3,0.4,0.7,0.8,1.2,1.1c0.5,0.3,1.2,0.4,2,0.4c1.1,0,2.1-0.2,2.8-0.7c0.7-0.5,1.3-1.1,1.6-1.8
		c0.4-0.7,0.6-1.5,0.7-2.4c0.1-0.9,0.2-1.6,0.2-2.3V107.2z"/>
	<path class="st0" d="M192.6,133.9h4V98.3h-4v-0.7h8.4v4.4h0.1c0.5-1.5,1.4-2.7,2.6-3.6c1.2-1,2.8-1.4,4.7-1.4c1.5,0,2.9,0.3,4.2,1
		c1.3,0.6,2.5,1.5,3.5,2.6c1,1.1,1.8,2.3,2.4,3.7c0.6,1.4,0.9,2.9,0.9,4.5c0,1.6-0.3,3.1-0.9,4.6c-0.6,1.4-1.4,2.7-2.5,3.8
		c-1,1.1-2.3,2-3.6,2.7c-1.4,0.7-2.8,1-4.4,1c-1.2,0-2.2-0.2-3-0.6c-0.8-0.4-1.5-0.9-2-1.4c-0.5-0.5-0.9-1.1-1.2-1.7
		c-0.3-0.6-0.5-1-0.6-1.4h-0.1v18.2h4v0.7h-12.5V133.9z M214.2,108c0-1.6-0.1-3-0.3-4.3c-0.2-1.3-0.5-2.4-0.9-3.3
		c-0.4-0.9-1-1.6-1.8-2.1c-0.8-0.5-1.8-0.7-3-0.7c-1.3,0-2.4,0.2-3.2,0.7c-0.8,0.5-1.5,1-2,1.7c-0.4,0.5-0.7,1-0.9,1.6
		c-0.2,0.6-0.4,1.2-0.5,2c-0.1,0.8-0.2,1.6-0.3,2.6c-0.1,1-0.1,2.2-0.1,3.5c0,1.2,0.1,2.3,0.3,3.6c0.2,1.2,0.5,2.3,1,3.3
		c0.5,1,1.2,1.8,2.1,2.4c0.9,0.6,2.1,0.9,3.5,0.9c1.4,0,2.6-0.3,3.4-0.8c0.8-0.6,1.5-1.4,1.9-2.4c0.4-1,0.7-2.3,0.8-3.8
		C214.1,111.5,214.2,109.9,214.2,108"/>
	<path class="st0" d="M221.5,119.3h4v-21h-4v-0.7h8.5v21.7h4v0.7h-12.5V119.3z M224.9,85.4c0-0.8,0.3-1.4,0.8-2
		c0.5-0.5,1.2-0.8,2-0.8c0.8,0,1.4,0.3,2,0.8c0.5,0.5,0.8,1.2,0.8,2s-0.3,1.4-0.8,2c-0.5,0.5-1.2,0.8-2,0.8c-0.8,0-1.4-0.3-2-0.8
		C225.1,86.8,224.9,86.2,224.9,85.4"/>
	<path class="st0" d="M234.3,97.6h4v-6.7c0.3,0.1,0.5,0.2,0.8,0.3c0.2,0.1,0.7,0.1,1.3,0.1c0.5,0,1-0.1,1.4-0.2
		c0.4-0.1,0.7-0.3,1.1-0.6v7.2h7.4v0.7h-7.4v17.1c0,1,0.1,1.8,0.3,2.4c0.2,0.6,0.4,1.1,0.8,1.4c0.3,0.3,0.7,0.5,1,0.7
		c0.4,0.1,0.7,0.2,1.1,0.2c1.2,0,2.2-0.4,3-1.3c0.7-0.9,1.2-1.9,1.4-3.1l0.7,0.3c-0.1,0.5-0.3,1-0.5,1.5c-0.2,0.6-0.5,1.1-1,1.6
		c-0.4,0.5-1,0.9-1.7,1.3c-0.7,0.3-1.6,0.5-2.6,0.5c-2.6,0-4.4-0.5-5.5-1.5c-1-1-1.5-2.4-1.5-4.3V98.3h-4V97.6z"/>
	<path class="st0" d="M275.8,119.4c-0.5,0.3-1,0.7-1.6,0.9c-0.6,0.3-1.4,0.4-2.3,0.4c-1.7,0-2.9-0.4-3.6-1.1c-0.8-0.7-1.3-1.7-1.5-3
		h-0.1c-0.1,0.3-0.3,0.7-0.6,1.2c-0.2,0.5-0.6,0.9-1.1,1.4c-0.5,0.4-1.2,0.8-2,1.1c-0.8,0.3-1.9,0.4-3.2,0.4c-1.5,0-2.6-0.2-3.5-0.5
		c-0.9-0.3-1.6-0.7-2-1.2c-0.5-0.5-0.8-1-1-1.6c-0.2-0.6-0.2-1.2-0.2-1.7c0-1.2,0.2-2.2,0.7-2.9c0.5-0.7,1.1-1.3,1.9-1.8
		c0.8-0.4,1.7-0.8,2.6-1.1c1-0.3,1.9-0.6,2.9-0.9c1.1-0.4,2.1-0.7,2.8-1c0.7-0.3,1.3-0.6,1.8-1c0.4-0.4,0.7-0.9,0.9-1.5
		c0.2-0.6,0.2-1.4,0.2-2.5c0-0.8-0.1-1.6-0.2-2.2c-0.1-0.7-0.3-1.2-0.6-1.7c-0.3-0.5-0.7-0.8-1.2-1.1c-0.5-0.2-1.2-0.4-2.1-0.4
		c-1.2,0-2.1,0.2-2.9,0.6c-0.8,0.4-1.1,1.1-1.1,2c0,0.6,0.1,1.2,0.2,1.8c0.1,0.6,0.2,1,0.2,1.3c0,0.5-0.2,0.9-0.5,1.2
		c-0.3,0.3-0.9,0.5-1.5,0.5c-1.2,0-1.9-0.2-2.1-0.6c-0.3-0.4-0.4-1-0.4-1.6c0-0.8,0.2-1.5,0.5-2.2c0.3-0.7,0.9-1.3,1.5-1.9
		c0.7-0.5,1.5-1,2.6-1.3c1-0.3,2.2-0.5,3.5-0.5c1.6,0,2.9,0.2,4,0.6c1.1,0.4,2,0.9,2.6,1.6c0.7,0.7,1.1,1.4,1.4,2.3
		c0.3,0.9,0.4,1.8,0.4,2.7v13c0,1,0.2,1.7,0.5,2c0.3,0.3,0.8,0.5,1.4,0.5c0.4,0,0.8-0.1,1.2-0.2c0.4-0.1,0.8-0.3,1.2-0.6
		L275.8,119.4z M266.6,107.2h-0.1c-0.1,0.5-0.6,0.9-1.7,1.4l-3.9,1.6c-1.1,0.5-2,1.1-2.6,1.9c-0.6,0.8-0.9,1.8-0.9,3.1
		c0,0.5,0.1,1.1,0.2,1.6c0.1,0.6,0.3,1.1,0.6,1.5c0.3,0.4,0.7,0.8,1.2,1.1c0.5,0.3,1.2,0.4,2,0.4c1.1,0,2.1-0.2,2.8-0.7
		c0.7-0.5,1.3-1.1,1.6-1.8c0.4-0.7,0.6-1.5,0.7-2.4c0.1-0.9,0.2-1.6,0.2-2.3V107.2z"/>
	<polygon class="st0" points="277.4,119.3 281.4,119.3 281.4,83.1 277.4,83.1 277.4,82.3 285.9,82.3 285.9,119.3 290,119.3 290,120 
		277.4,120 	"/>
	<path class="st1" d="M0,65.2h1c0.4,1.5,1,2.9,1.6,4.4c0.7,1.5,1.6,2.9,2.7,4.1c1.1,1.2,2.5,2.3,4.2,3.1c1.6,0.8,3.6,1.2,5.9,1.2
		c1.9,0,3.7-0.6,5.2-1.8c1.5-1.2,2.3-3.1,2.3-5.8c0-2.3-0.6-3.9-1.8-4.9c-1.2-0.9-2.6-1.7-4.2-2.2l-7.1-2.5c-0.9-0.3-1.9-0.7-3-1.1
		c-1.1-0.5-2.1-1.1-3-1.9c-0.9-0.8-1.7-1.9-2.2-3.2c-0.6-1.3-0.9-2.9-0.9-4.9c0-1.7,0.3-3.3,1-4.7c0.7-1.5,1.6-2.7,2.7-3.8
		c1.2-1.1,2.5-1.9,4.2-2.6c1.6-0.6,3.4-0.9,5.2-0.9c1.3,0,2.4,0.1,3.2,0.3c0.8,0.2,1.5,0.4,2.1,0.6c0.6,0.2,1.2,0.4,1.6,0.6
		c0.5,0.2,1.1,0.3,1.7,0.3s1.2-0.2,1.5-0.7h1v10.4h-1c-0.4-1.3-0.9-2.6-1.5-3.9c-0.5-1.2-1.2-2.4-2-3.3c-0.8-1-1.7-1.7-2.8-2.3
		c-1.1-0.5-2.4-0.8-4-0.8c-2.9,0-5.2,0.7-6.8,2c-1.6,1.3-2.4,3.1-2.4,5.2c0,1.9,0.7,3.4,2.1,4.4c1.4,1,3.4,1.9,6.1,2.8l6.7,2.2
		c2.9,1,5.2,2.3,7,4c1.8,1.7,2.7,4,2.7,6.8c0,1.6-0.3,3.3-1,4.8c-0.6,1.6-1.6,3-2.8,4.2c-1.2,1.2-2.8,2.1-4.6,2.9
		c-1.8,0.7-3.8,1.1-6.2,1.1c-1.3,0-2.6-0.1-3.7-0.4C10,78.5,8.9,78.2,8,77.9c-0.9-0.3-1.8-0.6-2.6-0.9c-0.8-0.3-1.5-0.4-2.2-0.4
		c-0.7,0-1.2,0.1-1.5,0.4c-0.3,0.3-0.5,0.6-0.7,0.9H0V65.2z"/>
	<path class="st1" d="M30.9,102.2h7V40.1h-7v-1.3h14.7v7.7h0.2c0.9-2.6,2.4-4.7,4.5-6.3c2.1-1.7,4.8-2.5,8.2-2.5
		c2.6,0,5.1,0.6,7.4,1.7c2.3,1.1,4.4,2.6,6.1,4.5c1.8,1.9,3.2,4,4.2,6.5c1,2.5,1.6,5.1,1.6,7.9c0,2.8-0.5,5.5-1.6,8
		c-1.1,2.5-2.5,4.8-4.3,6.7c-1.8,1.9-3.9,3.5-6.3,4.7c-2.4,1.2-4.9,1.7-7.6,1.7c-2.1,0-3.8-0.4-5.2-1c-1.4-0.7-2.6-1.5-3.5-2.5
		c-0.9-0.9-1.6-1.9-2.1-2.9s-0.8-1.8-1-2.4h-0.2v31.9h7v1.3H30.9V102.2z M68.6,57c0-2.8-0.2-5.3-0.5-7.5c-0.3-2.2-0.8-4.1-1.6-5.7
		c-0.8-1.6-1.8-2.8-3.2-3.7c-1.4-0.9-3.1-1.3-5.2-1.3c-2.3,0-4.1,0.4-5.6,1.2s-2.6,1.8-3.6,3c-0.7,0.9-1.2,1.8-1.6,2.7
		c-0.4,1-0.7,2.1-1,3.5c-0.2,1.3-0.4,2.9-0.5,4.6c-0.1,1.7-0.1,3.8-0.1,6.2c0,2,0.2,4.1,0.5,6.2c0.3,2.1,0.9,4.1,1.7,5.8
		c0.9,1.7,2.1,3.1,3.6,4.2c1.6,1.1,3.6,1.6,6.2,1.6c2.5,0,4.5-0.5,5.9-1.5c1.5-1,2.6-2.4,3.3-4.2c0.7-1.8,1.2-4,1.4-6.6
		C68.5,63.1,68.6,60.2,68.6,57"/>
	<path class="st1" d="M120.6,76.9c-0.8,0.6-1.7,1.1-2.8,1.6c-1.1,0.5-2.4,0.7-4,0.7c-2.9,0-5-0.6-6.3-1.9c-1.3-1.2-2.2-3-2.7-5.2
		h-0.2c-0.2,0.5-0.6,1.2-1,2.1c-0.4,0.8-1.1,1.6-2,2.4c-0.9,0.8-2.1,1.4-3.5,1.9c-1.5,0.5-3.3,0.8-5.6,0.8c-2.6,0-4.6-0.3-6.1-0.9
		c-1.5-0.6-2.7-1.3-3.6-2.1c-0.9-0.9-1.4-1.8-1.7-2.9c-0.3-1.1-0.4-2.1-0.4-3c0-2.1,0.4-3.8,1.3-5.1c0.9-1.3,2-2.3,3.3-3.1
		c1.4-0.8,2.9-1.4,4.6-1.9c1.7-0.5,3.4-1,5.1-1.6c2-0.7,3.7-1.2,5-1.7c1.3-0.5,2.3-1.1,3.1-1.8c0.7-0.7,1.2-1.6,1.5-2.6
		c0.3-1.1,0.4-2.5,0.4-4.3c0-1.5-0.1-2.8-0.3-3.9c-0.2-1.2-0.5-2.1-1-3c-0.5-0.8-1.2-1.4-2.1-1.9c-0.9-0.4-2.1-0.6-3.7-0.6
		c-2,0-3.7,0.4-5,1.1c-1.3,0.7-2,1.8-2,3.4c0,1,0.1,2.1,0.3,3.1c0.2,1,0.3,1.8,0.3,2.2c0,0.9-0.3,1.6-0.9,2.1
		c-0.6,0.6-1.5,0.9-2.6,0.9c-2,0-3.3-0.4-3.7-1.1c-0.5-0.7-0.7-1.7-0.7-2.8c0-1.3,0.3-2.6,0.9-3.8c0.6-1.2,1.5-2.3,2.7-3.2
		c1.2-0.9,2.7-1.7,4.5-2.2c1.8-0.5,3.8-0.8,6.2-0.8c2.8,0,5.1,0.4,7,1c1.9,0.7,3.4,1.6,4.6,2.8c1.2,1.2,2,2.5,2.5,4
		c0.5,1.5,0.7,3.1,0.7,4.7v22.7c0,1.8,0.3,3,0.8,3.6c0.5,0.6,1.3,0.9,2.4,0.9c0.7,0,1.4-0.1,2.1-0.4c0.7-0.2,1.4-0.6,2.1-1.1
		L120.6,76.9z M104.6,55.6h-0.2c-0.1,0.8-1.1,1.6-3,2.4l-6.8,2.7c-1.9,0.8-3.4,1.9-4.5,3.3c-1,1.4-1.6,3.2-1.6,5.3
		c0,0.9,0.1,1.9,0.3,2.8c0.2,1,0.5,1.8,1,2.6c0.5,0.8,1.2,1.4,2.1,1.9c0.9,0.5,2,0.7,3.4,0.7c2,0,3.6-0.4,4.9-1.3
		c1.2-0.9,2.2-1.9,2.8-3.2c0.6-1.3,1.1-2.7,1.3-4.2c0.2-1.5,0.3-2.8,0.3-4.1V55.6z"/>
	<path class="st1" d="M117,38.8h7V27c0.5,0.2,0.9,0.3,1.4,0.5c0.4,0.1,1.2,0.2,2.2,0.2c0.9,0,1.7-0.1,2.4-0.3c0.7-0.2,1.3-0.6,1.9-1
		v12.5h13v1.3h-13v29.9c0,1.7,0.2,3.1,0.5,4.2c0.3,1.1,0.8,1.9,1.3,2.5c0.5,0.6,1.1,1,1.8,1.1c0.6,0.2,1.3,0.3,1.9,0.3
		c2.1,0,3.8-0.8,5.2-2.3c1.3-1.6,2.1-3.3,2.5-5.3l1.3,0.5c-0.2,0.8-0.5,1.7-0.8,2.6c-0.4,1-0.9,1.9-1.7,2.8c-0.8,0.9-1.8,1.6-3,2.2
		c-1.2,0.6-2.7,0.9-4.6,0.9c-4.6,0-7.7-0.9-9.5-2.6c-1.8-1.8-2.7-4.3-2.7-7.5v-29h-7V38.8z"/>
	<polygon class="st1" points="146.5,76.7 153.6,76.7 153.6,40.1 146.5,40.1 146.5,38.8 161.4,38.8 161.4,76.7 168.4,76.7 
		168.4,77.9 146.5,77.9 	"/>
	<path class="st1" d="M215.6,77.9h-14.7v-9.2h-0.2c-0.5,1.2-1.2,2.4-2,3.7s-1.7,2.4-2.8,3.4c-1.1,1-2.4,1.8-3.9,2.5
		c-1.5,0.6-3.2,1-5.2,1c-2.4,0-4.4-0.3-5.9-0.8c-1.5-0.5-2.7-1.1-3.6-1.7c-0.4-0.3-0.9-0.7-1.4-1.1c-0.5-0.5-1-1.1-1.4-1.9
		c-0.4-0.8-0.8-1.8-1.1-3.1c-0.3-1.2-0.5-2.8-0.5-4.6V40.1h-7v-1.3h14.9v28c0,1.6,0.1,3,0.3,4.4c0.2,1.3,0.6,2.5,1.2,3.5
		c0.6,1,1.4,1.8,2.4,2.4c1,0.6,2.3,0.9,3.8,0.9c1.3,0,2.7-0.4,4.2-1.2c1.4-0.8,2.7-1.9,3.9-3.4c1.2-1.5,2.2-3.2,3-5.2
		c0.8-2,1.2-4.3,1.2-6.9V40.1h-6.9v-1.3h14.8v37.9h7V77.9z"/>
	<path class="st1" d="M214.2,76.7h7V40.1h-7v-1.3h14.7v9.6h0.2c1.3-3.7,3.1-6.3,5.5-8c2.4-1.7,5.3-2.6,8.7-2.6c3,0,5.7,0.7,8.1,2
		c2.3,1.3,3.9,3.6,4.6,6.7h0.2c0.4-1.1,1-2.2,1.7-3.2c0.7-1,1.6-2,2.7-2.8c1.1-0.8,2.4-1.5,3.9-2c1.5-0.5,3.2-0.7,5.1-0.7
		c8.9,0,13.3,4.5,13.3,13.6v25.3h7v1.3H268v-1.3h7v-31c0-2.1-0.6-3.7-1.7-4.8c-1.1-1.2-2.7-1.7-4.6-1.7c-1.5,0-3,0.3-4.6,0.9
		c-1.5,0.6-2.9,1.4-4.1,2.6c-1.2,1.2-2.2,2.6-3,4.5c-0.8,1.8-1.1,4-1.1,6.4v23.3h7v1.3h-21.9v-1.3h7V46.9c0-2.7-0.5-4.7-1.6-5.9
		c-1.1-1.3-2.6-1.9-4.4-1.9c-1.3,0-2.7,0.3-4.2,1c-1.5,0.6-2.9,1.6-4.2,3c-1.3,1.4-2.4,3.1-3.3,5.3c-0.9,2.2-1.3,4.9-1.3,8v20.3h7
		v1.3h-21.9V76.7z"/>
	<path class="st2" d="M136,3.1c0.3,0.3,0.6,0.6,0.9,0.9c0.1-0.4,0.2-0.8,0.3-1.2c0.2-0.4,0.5-0.6,0.9-0.8c0,0.4-0.1,0.7,0,1.1
		c0,0.5,0.4,0.7,0.8,0.6c0.9-0.4,1.7-0.2,2.5,0.3c0.8,0.5,1.4,1,1.7,1.9c0.2,0.6,0.5,1.1,1.2,1.3c0.7,0.3,1.4,0.7,2,1.1
		c0.1,0.1,0.3,0.3,0.3,0.5c0,0.4-0.5,0.9-0.8,1c-0.1,0-0.2,0.1-0.3,0.1c-0.3,0.1-0.4,0.2-0.2,0.5c0.1,0.1,0.1,0.3,0.1,0.3
		c-0.2,0.1-0.3,0.2-0.4,0.2c-0.2,0.1-0.5,0.3-0.7,0.4c-0.7,0.1-1.4-0.2-2.1-0.4c-0.5-0.2-1-0.3-1.5-0.4c-0.8-0.1-1.4,0.3-1.7,1.1
		c-0.2,0.5-0.5,1-0.7,1.5c0,0.1,0,0.3,0,0.4c0.4,0.6,0.9,0.9,1.6,0.9c2,0,3.8,0.5,5.8,0.8c0.3,0,0.6,0.2,0.8,0.3
		c0.3,0.1,0.3,0.4,0.1,0.7c-0.4,0.7-1.5,1-2.2,0.8c-0.1,0-0.2,0-0.3,0c-0.3,0.6-0.9,0.7-1.5,0.7c-1-0.1-2.1-0.2-3.1-0.4
		c-1.4-0.2-2.9-0.3-4.3-0.1c-0.5,0.1-1,0.2-1.4,0.3c-0.2,0-0.3,0.1-0.4,0.2c-0.7,0.8-1.7,1.2-2.7,1.5c-1.4,0.4-2.8,0.7-4.3,1
		c-1.4,0.3-2.8,0.5-4.2,0.7c-1.2,0.1-2,0.8-2.9,1.4c-0.4,0.3-0.7,0.9-1,1.3c-0.8,1-1.5,2.1-2.8,2.7c-0.4,0.2-1,0.4-1.4,0.4
		c-1.6,0-3.2,0.2-4.6,1.1c-0.4,0.2-0.8,0.3-1.2,0.5c-0.5,0.2-0.9,0.1-1.4-0.2c-0.1-0.1-0.3,0-0.4,0c-0.3,0.2-0.6,0.4-1,0.1
		c-0.4-0.3-0.3-0.7-0.2-1.1c0.2-0.8,0.7-1.4,1.3-1.9c0.5-0.5,0.9-1.1,1.3-1.6c0.5-0.6,0.9-1.1,1.8-1.1c0.8,0,1.2-0.6,1.6-1.1
		c0.4-0.6,0.8-1.3,1.1-2c0.4-0.8,0.9-1.6,1.6-2.3c0.3-0.3,0.3-0.5-0.1-0.6c-1-0.2-2.1-0.3-3.1-0.1c-0.9,0.2-1.7,0.4-2.6,0.5
		c-0.6,0.1-1.3,0-2,0c0.3-0.7,0.8-1.1,1.4-1.4c1-0.5,2.1-0.6,3.2-0.8c0.5-0.1,1-0.1,1.5-0.2c1-0.1,1.9,0.2,2.8,0.4
		c0.3,0.1,0.6,0.2,0.8,0.2c0.3,0,0.6,0,0.9-0.1c0.6-0.1,1.1-0.4,1.7-0.5c2.5-0.5,4.9-1,7.2-2.3c1.3-0.7,2.4-1.6,3.5-2.6
		c1.3-1.1,2.6-2.2,4-3.2c0.5-0.4,1.1-0.5,1.7-0.8c0.1-0.1,0.3-0.1,0.4-0.2c0.8-0.4,0.8-0.4,0.5-1.2C135.5,3.9,135.6,3.5,136,3.1
		 M109.1,25.8c0,0,0,0.1,0,0.1c0.7-0.3,1.4-0.6,2.2-0.9C110.7,24.6,109.6,25,109.1,25.8"/>
	<path class="st0" d="M152.5,17.5c0-1.3,0.5-2.5,1.4-3.4c0.9-0.9,2.1-1.4,3.4-1.4c1.3,0,2.5,0.5,3.4,1.4c0.9,0.9,1.4,2.1,1.4,3.4
		c0,1.3-0.5,2.5-1.4,3.4c-0.9,0.9-2.1,1.4-3.4,1.4c-1.3,0-2.5-0.5-3.4-1.4C152.9,20,152.5,18.8,152.5,17.5"/>
	<path class="st0" d="M294.9,112.2c0.7,0,1.4,0.2,2,0.5c0.6,0.4,1.1,0.8,1.4,1.4c0.4,0.6,0.5,1.3,0.5,2c0,0.7-0.2,1.4-0.5,2
		c-0.4,0.6-0.8,1.1-1.4,1.4c-0.6,0.4-1.3,0.5-2,0.5c-0.7,0-1.4-0.2-2-0.5c-0.6-0.4-1.1-0.8-1.4-1.4c-0.4-0.6-0.5-1.3-0.5-2
		c0-0.7,0.2-1.4,0.5-2c0.4-0.6,0.8-1.1,1.4-1.4C293.5,112.3,294.2,112.2,294.9,112.2 M294.9,112.8c-0.9,0-1.7,0.3-2.3,1
		c-0.6,0.6-1,1.4-1,2.3c0,0.9,0.3,1.7,1,2.3c0.6,0.6,1.4,1,2.3,1c0.9,0,1.7-0.3,2.3-1s1-1.4,1-2.3c0-0.9-0.3-1.7-1-2.3
		C296.6,113.1,295.8,112.8,294.9,112.8 M294,118.2h-0.7V114h1.5c0.5,0,0.9,0,1.1,0.1c0.2,0.1,0.4,0.2,0.5,0.4
		c0.1,0.2,0.2,0.4,0.2,0.6c0,0.3-0.1,0.6-0.3,0.8c-0.2,0.2-0.5,0.3-0.9,0.4c0.2,0.1,0.3,0.2,0.5,0.3c0.1,0.2,0.3,0.4,0.5,0.7
		l0.5,0.8h-0.8l-0.4-0.7c-0.3-0.5-0.5-0.8-0.6-0.9c-0.2-0.1-0.4-0.2-0.6-0.2H294V118.2z M294,114.6v1.3h0.8c0.4,0,0.6-0.1,0.8-0.2
		c0.2-0.1,0.2-0.3,0.2-0.5c0-0.2-0.1-0.4-0.2-0.5c-0.2-0.1-0.4-0.1-0.8-0.1H294z"/>
</g>
</svg>
